<svg xmlns="http://www.w3.org/2000/svg" viewBox="0 0 100 100" width="1em" height="1em" class="IconSelector__Grid__Icon">
    <defs>
        <style>.Recurso_18_svg__h{fill:#fab700}.Recurso_18_svg__i{fill:#1b1464}</style>
    </defs>
    <g id="Recurso_18_svg__b">
        <circle cx="50" cy="50" r="50" style="fill: rgb(212, 191, 0);" id="Recurso_18_svg__c"/>
        <g id="Recurso_18_svg__d">
            <path style="fill: rgb(255, 255, 255);" d="M22.5 15h55v70h-55z"/>
            <path class="Recurso_18_svg__i"
                  d="M57 26v4H43v-4h14m.5-.5h-15v5h15v-5ZM72 26v4H58v-4h14m.5-.5h-15v5h15v-5ZM72 31v4H58v-4h14m.5-.5h-15v5h15v-5ZM57 31v4H43v-4h14m.5-.5h-15v5h15v-5ZM42 31v4H28v-4h14m.5-.5h-15v5h15v-5ZM42 26v4H28v-4h14m.5-.5h-15v5h15v-5Z"/>
            <path style="fill: rgb(171, 0, 54);" d="M61 18h11v5H61z"/>
            <path class="Recurso_18_svg__h"
                  d="M50.49 58.45 45.1 68.96c-.07.14-.11.29-.11.45v.68c0 .5.36.91.81.91.25 0 .49-.13.64-.35L55 58.1v-.09h-3.81c-.29 0-.55.17-.7.45Z"/>
            <path class="Recurso_18_svg__h" d="m50.16 46-4.57 15h4.08l8.66-15h-8.17z"/>
        </g>
    </g>
</svg>