<svg xmlns="http://www.w3.org/2000/svg" viewBox="0 0 100 100" width="1em" height="1em" class="IconSelector__Grid__Icon">
    <defs>
        <style>.Recurso_20_svg__i{fill:#1b1464}</style>
    </defs>
    <g id="Recurso_20_svg__b">
        <circle cx="50" cy="50" r="50" style="fill: rgb(50, 70, 151);" id="Recurso_20_svg__c"/>
        <g id="Recurso_20_svg__d">
            <path style="fill: rgb(255, 255, 255);" d="M22.5 15h55v70h-55z"/>
            <path class="Recurso_20_svg__i"
                  d="M57 26v4H43v-4h14m.5-.5h-15v5h15v-5ZM72 26v4H58v-4h14m.5-.5h-15v5h15v-5ZM72 31v4H58v-4h14m.5-.5h-15v5h15v-5ZM57 31v4H43v-4h14m.5-.5h-15v5h15v-5ZM42 31v4H28v-4h14m.5-.5h-15v5h15v-5ZM42 26v4H28v-4h14m.5-.5h-15v5h15v-5Z"/>
            <path style="fill: rgb(171, 0, 54);" d="M61 18h11v5H61z"/>
            <path d="M56.92 66.74c-3.64 1.76-9.2-.56-12.57-5.31-3.21-4.51-3.31-9.63-.4-11.94l-4.58-6.09c-3.75 3.6-2.62 11.92 2.97 19.64C48.18 71.11 56.75 75.58 62 73.48l-5.08-6.75Z"
                  style="fill: rgb(50, 70, 151);"/>
        </g>
    </g>
</svg>