<svg id="Recurso_38_svg__Capa_2" xmlns="http://www.w3.org/2000/svg" viewBox="0 0 100 100" width="1em" height="1em"
     class="IconSelector__Grid__Icon">
    <defs>
        <style>.Recurso_38_svg__cls-2{fill:#27ade4}.Recurso_38_svg__cls-4{fill:#c4c4c4}</style>
    </defs>
    <circle cx="50" cy="50" r="50" style="fill: rgb(99, 64, 146);" id="Recurso_38_svg__Capa_1-2"/>
    <g id="Recurso_38_svg__Capa_2-2">
        <path d="M79 54v6H21v-7c0-.55.45-1 1-1h1.5l1.23-9.81A2.496 2.496 0 0 1 27.21 40h32.54c.79 0 1.53.37 2 1L70 52h7c1.1 0 2 .9 2 2Z"
              style="fill: rgb(241, 90, 36);"/>
        <path class="Recurso_38_svg__cls-4" d="M20.5 57h6v2h-6c-.55 0-1-.45-1-1s.45-1 1-1Z"/>
        <path class="Recurso_38_svg__cls-4" d="M74.5 57h6v2h-6c-.55 0-1-.45-1-1s.45-1 1-1Z"
              transform="rotate(-180 77 58)"/>
        <circle cx="33" cy="61" r="5"/>
        <circle class="Recurso_38_svg__cls-4" cx="33" cy="61" r="2"/>
        <circle cx="67" cy="61" r="5"/>
        <circle class="Recurso_38_svg__cls-4" cx="67" cy="61" r="2"/>
        <path class="Recurso_38_svg__cls-2"
              d="M41.22 52H26.87c-.46 0-.83-.4-.78-.86l.84-8.43c.04-.4.38-.71.78-.71h13.51c.43 0 .78.35.78.78v8.43c0 .43-.35.78-.78.78ZM65.72 52H44.67a.67.67 0 0 1-.67-.67v-8.67c0-.37.3-.67.67-.67h14.99c.22 0 .42.11.55.28l6.07 8.67c.31.44 0 1.05-.55 1.05Z"/>
    </g>
</svg>