<svg id="Recurso_41_svg__Capa_2" xmlns="http://www.w3.org/2000/svg" viewBox="0 0 100 100" width="1em" height="1em"
     class="IconSelector__Grid__Icon">
    <defs>
        <style>.Recurso_41_svg__cls-2{fill:#c4c4c4}.Recurso_41_svg__cls-3{fill:#5ab679}</style>
    </defs>
    <circle class="Recurso_41_svg__cls-3" cx="50" cy="50" r="50" id="Recurso_41_svg__Capa_1-2"/>
    <g id="Recurso_41_svg__Capa_2-2">
        <path class="Recurso_41_svg__cls-2" transform="rotate(43.78 48.616 49.451)" d="M45.62 25.94h6v47h-6z"/>
        <circle class="Recurso_41_svg__cls-2" cx="67.14" cy="29.8" r="7"/>
        <path class="Recurso_41_svg__cls-3" d="M67.11 26.22h6v5c0 1.66-1.34 3-3 3s-3-1.34-3-3v-5Z"
              transform="rotate(97.94 70.115 30.219)"/>
        <circle class="Recurso_41_svg__cls-2" cx="32.81" cy="66.15" r="7"/>
        <path class="Recurso_41_svg__cls-3" d="M26.81 61.95h6v5c0 1.66-1.34 3-3 3s-3-1.34-3-3v-5Z"
              transform="rotate(-86.28 29.808 65.953)"/>
        <path transform="rotate(43.78 48.616 49.451)" style="fill: rgb(132, 132, 132);"
              d="M48.12 33.44h1v32h-1z"/>
    </g>
</svg>