<svg id="Recurso_42_svg__Capa_2" xmlns="http://www.w3.org/2000/svg" viewBox="0 0 100 100" width="1em" height="1em"
     class="IconSelector__Grid__Icon">
    <defs>
        <style>
            .Recurso_42_svg__cls-1{fill:#fff}.Recurso_42_svg__cls-3{fill:#27ade4}.Recurso_42_svg__cls-5{fill:#c4c4c4}
        </style>
    </defs>
    <circle cx="50" cy="50" r="50" style="fill: rgb(231, 34, 90);" id="Recurso_42_svg__Capa_1-2"/>
    <g id="Recurso_42_svg__Capa_2-2">
        <path d="M79 51v6H21v-7c0-.55.45-1 1-1h1.5l1.23-9.81A2.496 2.496 0 0 1 27.21 37h32.54c.79 0 1.53.37 2 1L70 49h7c1.1 0 2 .9 2 2Z"
              style="fill: rgb(232, 225, 0);"/>
        <path class="Recurso_42_svg__cls-5" d="M20.5 54h6v2h-6c-.55 0-1-.45-1-1s.45-1 1-1Z"/>
        <path class="Recurso_42_svg__cls-5" d="M74.5 54h6v2h-6c-.55 0-1-.45-1-1s.45-1 1-1Z"
              transform="rotate(-180 77 55)"/>
        <path class="Recurso_42_svg__cls-3"
              d="M41.22 49H26.87c-.46 0-.83-.4-.78-.86l.84-8.43c.04-.4.38-.71.78-.71h13.51c.43 0 .78.35.78.78v8.43c0 .43-.35.78-.78.78ZM65.72 49H44.67a.67.67 0 0 1-.67-.67v-8.67c0-.37.3-.67.67-.67h14.99c.22 0 .42.11.55.28l6.07 8.67c.31.44 0 1.05-.55 1.05Z"/>
        <path class="Recurso_42_svg__cls-1"
              d="M39 53h2v2h-2zM35 53h2v2h-2zM31 53h2v2h-2zM41 55h2v2h-2zM37 55h2v2h-2zM45 55h2v2h-2zM49 55h2v2h-2zM53 55h2v2h-2zM57 55h2v2h-2zM61 55h2v2h-2zM43 53h2v2h-2zM47 53h2v2h-2zM51 53h2v2h-2zM55 53h2v2h-2zM59 53h2v2h-2zM63 53h2v2h-2zM67 53h2v2h-2z"/>
        <circle cx="67" cy="58" r="5"/>
        <circle class="Recurso_42_svg__cls-5" cx="67" cy="58" r="2"/>
        <circle cx="33" cy="58" r="5"/>
        <circle class="Recurso_42_svg__cls-5" cx="33" cy="58" r="2"/>
    </g>
</svg>