<svg xmlns="http://www.w3.org/2000/svg" viewBox="0 0 100 100" width="1em" height="1em"
     class="IconSelector__Grid__Icon">
    <circle cx="50" cy="50" r="50" style="fill: rgb(180, 158, 204);"/>
    <path d="M82 61c0 16-14.33 29-32 29S18 77 18 61c0-11.3 11.74-29.33 22.6-37.16.53-.38.62-1.14.17-1.61l-9.89-10.42c-.65-.68-.16-1.81.78-1.81h2c.33 0 .65.15.84.42.68.94 1.99 1.58 3.51 1.58s2.83-.64 3.51-1.58c.19-.27.51-.42.84-.42h3.3c.33 0 .65.15.84.42.68.94 1.99 1.58 3.51 1.58s2.83-.64 3.51-1.58c.19-.27.51-.42.84-.42h5.3c.33 0 .65.15.84.42.68.94 1.99 1.58 3.51 1.58s2.83-.64 3.51-1.58c.19-.27.51-.42.84-.42.94 0 1.42 1.12.78 1.81l-9.79 10.32c-.45.48-.36 1.23.17 1.61C71.03 32.04 82.01 52 82.01 61Z"
          style="fill: rgb(218, 176, 129);"/>
    <path d="M40.38 24h19.47c-.12-.09-.23-.18-.35-.26-.53-.38-.62-1.14-.17-1.61l.12-.12H40.54l.21.23c.45.48.37 1.23-.17 1.61-.07.05-.14.11-.21.16Z"
          style="fill: rgb(138, 96, 59);"/>
    <text transform="translate(37.18 72.75)"
          style="fill: rgb(0, 171, 54); font-family: MyriadPro-Regular, &quot;Myriad Pro&quot;; font-size: 50px; stroke: rgb(0, 104, 55); stroke-miterlimit: 10;">
        <tspan x="0" y="0">$</tspan>
    </text>
</svg>