<svg xmlns="http://www.w3.org/2000/svg" viewBox="0 0 100 100" width="1em" height="1em" class="IconSelector__Grid__Icon">
    <defs>
        <style>.Recurso_10_svg__h{fill:#cbc852}</style>
    </defs>
    <g id="Recurso_10_svg__b">
        <circle cx="50" cy="50" r="50" style="fill: rgb(84, 57, 142);" id="Recurso_10_svg__c"/>
        <g id="Recurso_10_svg__d">
            <path d="M29.58 4.36a50.232 50.232 0 0 0-7.57 4.2L48.82 55h10L29.58 4.36Z"
                  style="fill: rgb(0, 131, 14);"/>
            <path d="M69.75 4.06 39.18 57h10L77.37 8.17a49.98 49.98 0 0 0-7.63-4.11Z"
                  style="fill: rgb(0, 171, 54);"/>
            <circle cx="50" cy="60" r="14" style="fill: rgb(233, 230, 102);"/>
            <path class="Recurso_10_svg__h"
                  d="M50 47c7.17 0 13 5.83 13 13s-5.83 13-13 13-13-5.83-13-13 5.83-13 13-13m0-2c-8.28 0-15 6.72-15 15s6.72 15 15 15 15-6.72 15-15-6.72-15-15-15Z"/>
            <path class="Recurso_10_svg__h"
                  d="M45.73 59.03c2.2-1.18 4.04-2.94 5.32-5.09l-2.1-.57c-.08 4.33-1.2 8.66.61 12.8.24.56 1.06.68 1.54.4.57-.34.65-.98.4-1.54-1.59-3.64-.38-7.87-.31-11.67.02-1.13-1.53-1.51-2.1-.57a11.527 11.527 0 0 1-4.51 4.28c-1.28.68-.14 2.62 1.14 1.94Z"/>
        </g>
    </g>
</svg>