<svg xmlns="http://www.w3.org/2000/svg" viewBox="0 0 100 100" width="1em" height="1em" class="IconSelector__Grid__Icon">
    <defs>
        <style>.Recurso_4_svg__e{fill:#ab0036}</style>
    </defs>
    <g id="Recurso_4_svg__b">
        <circle cx="50" cy="50" r="50" style="fill: rgb(59, 124, 119);" id="Recurso_4_svg__c"/>
        <g id="Recurso_4_svg__d">
            <path class="Recurso_4_svg__e" d="m46.85 23.72-4.6 7h15.5l-4.6-7h-6.3z"/>
            <path class="Recurso_4_svg__e"
                  d="M72.44 18.71c-1.31-2.99-7.26-3.27-13.29-.62-6.02 2.65-9.84 7.22-8.53 10.21 1.31 2.99 7.26 3.27 13.29.62 6.02-2.65 9.84-7.22 8.53-10.21Zm-8.64 9.65c-4.72 2.15-9.49 1.99-10.66-.34s1.71-5.97 6.43-8.11 9.49-1.99 10.66.34-1.71 5.97-6.43 8.11Z"/>
            <path class="Recurso_4_svg__e"
                  d="M36.15 28.93c6.02 2.65 11.97 2.37 13.29-.62 1.31-2.99-2.5-7.56-8.53-10.21-6.02-2.65-11.97-2.37-13.29.62-1.31 2.99 2.5 7.56 8.53 10.21Zm-6.32-8.67c1.17-2.33 5.94-2.49 10.66-.34s7.6 5.78 6.43 8.11c-1.17 2.33-5.94 2.49-10.66.34-4.72-2.15-7.6-5.78-6.43-8.11Z"/>
            <rect x="25" y="29.72" width="50" height="50" rx="3" ry="3" style="fill: rgb(219, 197, 131);"/>
            <path class="Recurso_4_svg__e" d="M75 47.22H57.5v-17.5h-15v17.5H25v15h17.5v17.5h15v-17.5H75v-15Z"/>
        </g>
    </g>
</svg>