<svg id="Recurso_31_svg__Capa_2" xmlns="http://www.w3.org/2000/svg" viewBox="0 0 100 100" width="1em" height="1em"
     class="IconSelector__Grid__Icon">
    <defs>
        <style>.Recurso_31_svg__cls-4{fill:#333}</style>
    </defs>
    <circle cx="50" cy="50" r="50" style="fill: rgb(114, 182, 43);" id="Recurso_31_svg__Capa_1-2"/>
    <g id="Recurso_31_svg__Capa_2-2">
        <rect x="22.5" y="22.5" width="55" height="55" rx="6" ry="6" style="fill: rgb(77, 77, 77);"/>
        <circle class="Recurso_31_svg__cls-4" cx="35" cy="35" r="7.5"/>
        <circle class="Recurso_31_svg__cls-4" cx="50" cy="50" r="17.5"/>
        <path d="M50 35h-.42c-.53.02-1.06.06-1.57.13l.13.99c.61-.08 1.24-.12 1.86-.12v-1Zm-3.95.53-.09.02h-.05v.02h-.06v.02h-.06v.02h-.06v.02h-.05l-.02.02c-.48.14-.95.31-1.4.5h-.02l-.02.02h-.02l-.02.02h-.03l.39.93c.57-.24 1.16-.45 1.76-.61l-.26-.96Zm-3.67 1.55-.06.04h-.02v.02h-.03v.02h-.02v.02h-.03v.02h-.03l-.02.02c-.25.16-.5.32-.75.49h-.02v.02h-.03v.02h-.03v.02h-.03v.02h-.02v.02h-.02v.02h-.03l-.02.03c-.17.12-.34.25-.5.38l.62.79c.49-.38 1.01-.74 1.54-1.05l-.51-.86Zm-3.13 2.47c-.17.18-.34.36-.5.54v.02h-.02v.02h-.02v.02h-.02v.02h-.02v.02h-.02v.02h-.01v.02h-.02v.02h-.01v.02h-.02v.02h-.01v.02h-.01v.02h-.02v.02h-.01v.02h-.01v.04h-.01v.02h-.02v.02h-.01v.02h-.02v.02h-.01l-.03.04s-.05.06-.08.1-.05.06-.08.1l-.02.02v.02h-.01v.02h-.01v.02h-.02v.02h-.01v.02h-.02v.02h-.02v.02h-.01v.02h-.01v.02h-.01v.04h-.01v.02h-.01v.02h-.01v.02h-.01v.03h-.01v.02h-.01l-.05.07.8.6c.37-.5.78-.98 1.21-1.42l-.72-.7Zm-2.38 3.2c-.17.3-.32.61-.47.92v.02l-.02.05v.1h-.01V43.95h-.01V44.06l-.02.05v.06l-.02.05-.02.04c-.04.09-.07.18-.11.27l.93.36c.22-.58.49-1.15.79-1.69l-.88-.48Zm-1.45 3.72c-.02.1-.05.19-.07.29V47.17l-.02.12v.07h-.01V48.42l.99.11c.06-.62.17-1.24.32-1.84l-.97-.23Zm.59 3.94-1 .03c.02.56.06 1.12.14 1.67v.3l.99-.15c-.1-.61-.16-1.24-.18-1.86Zm.6 3.67-.96.29V56.29l.91-.4c-.26-.56-.48-1.15-.66-1.74Zm1.55 3.38-.85.53c.09.14.18.28.27.41v.02h.01v.02h.02v.03h.01v.02h.01v.02h.02v.02h.01v.03h.01v.02h.02v.02h.01v.02h.01v.02h.01v.03h.02v.02h.01v.02h.01v.02h.02v.02h.01v.02h.01v.02h.01v.02h.01v.02h.01v.02h.01v.02h.01v.02h.01v.02h.01v.02h.01v.02h.01v.02h.01v.02h.01v.02h.01v.02h.01v.02h.01v.02h.01v.02h.01v.02h.01v.02h.01v.02h.01v.02H38v.02h.01v.02h.01v.02h.01v.02h.01v.02h.01v.02h.01v.02h.01v.02h.01v.02h.01v.02h.01v.02h.01v.02h.01v.02h.01v.02h.01v.02h.01v.02h.01v.04h.02v.02h.01v.03h.01v.02h.01v.02h.01l.02.03.07.08.77-.64c-.4-.48-.77-.98-1.1-1.51Zm2.39 2.86-.68.74.28.25.02.02.02.02h.02v.02h.02v.02h.02v.02h.02v.02h.02v.02h.02v.02h.02v.02h.02v.02h.02v.02h.02v.02h.02v.02h.02v.02h.02l.02.03c.31.26.64.51.97.74l.57-.82c-.51-.35-1-.75-1.46-1.17Zm3.05 2.13-.46.89c.32.17.65.32.98.46h.02l.02.02h.03v.02h.04v.02h.04v.02h.04v.02h.04v.02h.04v.02h.04v.02h.04v.02h.04V64h.04v.02h.04v.02h.04v.02h.04v.02h.04l.02.02h.03v.02h.04l.02.02h.02l.02.02h.03v.02h.04l.34-.93c-.58-.21-1.16-.46-1.71-.74Zm3.51 1.25-.21.98c.35.07.71.14 1.07.18h.11v.02h.12c.23.04.45.06.68.08l.07-1c-.62-.05-1.24-.13-1.85-.26Zm5.57.05c-.61.12-1.23.19-1.85.23l.06 1h.23v-.02h.18l.02-.02h.16v-.02h.15v-.02h.14v-.02h.13v-.02h.12v-.02h.12v-.02h.11v-.02h.1v-.02h.1v-.02h.09v-.02h.09v-.02h.09v-.02h.08v-.02h.09l-.19-1Zm3.53-1.19c-.56.27-1.14.51-1.72.71l.32.95c.14-.05.29-.1.43-.15h.02l.02-.02h.03v-.02h.04v-.02h.04v-.02h.04v-.02h.04v-.02h.04v-.02h.04v-.02h.04v-.02h.04v-.02h.04v-.02h.04v-.02h.03l.02-.02h.03v-.02h.04v-.02h.04l.02-.02h.03v-.02h.04v-.02H56v-.02h.04v-.02h.04v-.02h.04v-.02h.03v-.02h.04v-.02h.03v-.02h.04v-.02h.03v-.02h.04l.02-.02h.02l.02-.02h.02c.07-.04.13-.07.2-.11l-.44-.9Zm3.09-2.08c-.46.41-.96.8-1.48 1.14l.56.83c.1-.07.2-.13.29-.2h.02l.02-.03h.02v-.02h.03l.02-.03h.02v-.02h.03v-.02h.03v-.02h.03v-.02h.03v-.02h.03v-.02h.03v-.02h.03v-.02h.03v-.02h.03v-.02h.02v-.02h.02v-.02h.03v-.02h.03v-.02h.03v-.02h.03v-.02h.02l.02-.02h.02l.02-.03h.02v-.02h.03l.02-.03h.02v-.02h.03l.02-.03h.02l.02-.03s.06-.06.1-.09c.15-.12.29-.25.44-.37l-.66-.75Zm2.44-2.82c-.34.52-.72 1.02-1.12 1.49l.76.65v-.02h.02v-.02h.02v-.02h.02v-.02h.01v-.02h.02v-.04h.01l.02-.02.29-.35.02-.02v-.02h.01v-.02h.02v-.02h.02v-.02h.01v-.02h.01v-.02h.01v-.02h.01v-.02h.01v-.04h.01v-.02h.01v-.02h.01V59h.02v-.02h.01v-.03h.01v-.02h.01v-.02H62c.19-.25.36-.5.53-.76l-.84-.55Zm1.61-3.36c-.19.59-.42 1.17-.69 1.73l.9.43v-.13h.01v-.13c.23-.51.44-1.04.61-1.59l-.95-.31Zm.66-3.66c-.03.62-.1 1.25-.21 1.85l.98.18c.06-.36.12-.72.16-1.09V50.78l-1-.05Zm.66-3.93-.98.22c.13.6.23 1.22.28 1.84l1-.09c0-.1-.02-.19-.03-.29v-.29c-.06-.47-.14-.93-.24-1.39Zm-1.38-3.74-.88.47c.29.55.55 1.12.76 1.7l.94-.35c-.02-.06-.05-.13-.07-.19v-.06h-.01V43.86h-.01v-.15h-.01V43.6H64v-.13l-.24-.48Zm-2.32-3.24-.73.68c.42.45.82.94 1.18 1.44l.81-.58c-.3-.42-.62-.82-.96-1.21v-.02h-.02v-.03h-.02v-.02h-.01v-.02h-.02v-.02h-.02v-.03h-.02v-.02h-.02v-.02h-.02v-.02h-.02v-.02h-.02v-.02h-.02v-.02h-.02v-.02h-.02v-.02H61v-.02h-.02v-.02h-.02v-.02h-.03Zm-3.09-2.54-.52.85c.53.32 1.04.69 1.52 1.08l.63-.77h-.01v-.02h-.03l-.02-.03h-.02l-.02-.03-.02-.02h-.02l-.02-.03h-.02v-.02h-.03l-.02-.03h-.02v-.02h-.03l-.02-.03h-.02l-.02-.03h-.02v-.02h-.02v-.02h-.02v-.02h-.03v-.02h-.03v-.02h-.02v-.02h-.02v-.02h-.02v-.02h-.02v-.02h-.03v-.02h-.03v-.02h-.02v-.02h-.02v-.02h-.02v-.02h-.02v-.02h-.02v-.02h-.02v-.02h-.02v-.02h-.02v-.02h-.02v-.02h-.02v-.02h-.02v-.02h-.02v-.02h-.02v-.02h-.02v-.02h-.03v-.02h-.03v-.02h-.03l-.02-.03h-.02v-.02h-.03v-.02h-.02l-.02-.02h-.02v-.02h-.03v-.02h-.02v-.02h-.02v-.02h-.02v-.02h-.02v-.02h-.02v-.02h-.03v-.02h-.03v-.02h-.03v-.02h-.03v-.02h-.03v-.02h-.02l-.02-.02h-.02c-.06-.05-.13-.09-.19-.13Zm-3.65-1.62-.28.96c.59.17 1.18.39 1.75.64l.41-.91c-.4-.18-.8-.34-1.22-.48h-.04v-.02h-.04v-.02h-.05v-.02h-.05v-.02h-.03c-.15-.06-.3-.1-.44-.14Zm-3.94-.59-.02 1c.62.01 1.25.06 1.86.15l.15-.99c-.1-.01-.2-.03-.29-.04h-.12v-.02h-.13v-.02h-.14v-.02h-.15v-.02h-.18V35h-.2l-.02-.02H51c-.23-.02-.47-.03-.7-.03Z"
              style="fill: rgb(251, 176, 59);"/>
        <circle cx="35" cy="35" r="4" style="fill: rgb(171, 0, 54);"/>
        <ellipse cx="50" cy="49" rx="10" ry="8"/>
    </g>
</svg>