<svg xmlns="http://www.w3.org/2000/svg" viewBox="0 0 100 100" width="1em" height="1em" class="IconSelector__Grid__Icon">
    <circle cx="50" cy="50" r="50" style="fill: rgb(61, 87, 163);"/>
    <path d="M10.5 38.56v22.88c0 1.41.92 2.56 2.06 2.56h25.3c.55 0 1.07-.27 1.46-.75l9.22-11.44c.81-1 2.11-1 2.92 0l9.22 11.44c.39.48.91.75 1.46.75h25.3c1.14 0 2.06-1.15 2.06-2.56V38.56c0-1.41-.92-2.56-2.06-2.56H12.56c-1.14 0-2.06 1.15-2.06 2.56Z"
          style="fill: rgb(226, 184, 140);"/>
    <path d="M38.06 43H16.79c-.98 0-1.78.99-1.78 2.21v9.58c0 1.22.8 2.21 1.78 2.21H34.5c.54 0 1.05-.3 1.39-.83l3.56-5.52c.25-.39.39-.88.39-1.38v-4.06c0-1.22-.8-2.21-1.78-2.21Z"
          style="fill: rgb(107, 198, 221);"/>
    <path d="M61.94 43h21.27c.98 0 1.78.99 1.78 2.21v9.58c0 1.22-.8 2.21-1.78 2.21H65.5c-.54 0-1.05-.3-1.39-.83l-3.56-5.52c-.25-.39-.39-.88-.39-1.38v-4.06c0-1.22.8-2.21 1.78-2.21Z"
          style="fill: rgb(231, 38, 91);"/>
</svg>