<svg id="Recurso_36_svg__Capa_2" xmlns="http://www.w3.org/2000/svg" viewBox="0 0 100 100" width="1em" height="1em"
     class="IconSelector__Grid__Icon">
    <defs>
        <style>
            .Recurso_36_svg__cls-1{fill:#4594d1}.Recurso_36_svg__cls-2{fill:#3053a1}.Recurso_36_svg__cls-3{fill:#74d2ff}.Recurso_36_svg__cls-4{fill:#e9e341}.Recurso_36_svg__cls-6{fill:#283376}
        </style>
    </defs>
    <circle cx="50" cy="50" r="50" style="fill: rgb(233, 226, 0);" id="Recurso_36_svg__Capa_1-2"/>
    <g id="Recurso_36_svg__Capa_2-2">
        <rect class="Recurso_36_svg__cls-6" x="27.5" y="23" width="45" height="54" rx="2.69" ry="2.69"/>
        <path class="Recurso_36_svg__cls-2" d="M27.5 57.5h45v5h-45zM27.5 37.5h45v5h-45z"/>
        <path class="Recurso_36_svg__cls-1" d="M37 23h6v54h-6zM57 23h6v54h-6z"/>
        <path class="Recurso_36_svg__cls-2" d="M27.5 27.5h45v5h-45zM27.5 47.5h45v5h-45zM27.5 67.5h45v5h-45z"/>
        <path class="Recurso_36_svg__cls-3"
              d="M45.85 22h6.34c.73 0 1.13.84.67 1.41L49.93 27l-3.41 4.18a.87.87 0 0 1-1.34 0L41.77 27l-2.93-3.59c-.46-.56-.06-1.41.67-1.41h6.34Z"/>
        <path class="Recurso_36_svg__cls-3"
              d="M53.85 22h6.34c.72 0 1.12.84.67 1.4L57.93 27l-3.41 4.18a.86.86 0 0 1-1.33 0L49.78 27l-2.93-3.6c-.46-.56-.06-1.4.67-1.4h6.34Z"/>
        <path class="Recurso_36_svg__cls-6" d="M50 22h8.15l-4.07 3L50 28l-4.08-3-4.07-3H50z"/>
        <circle class="Recurso_36_svg__cls-4" cx="49" cy="37" r="1"/>
        <circle class="Recurso_36_svg__cls-4" cx="49" cy="43" r="1"/>
        <circle class="Recurso_36_svg__cls-4" cx="49" cy="49" r="1"/>
        <circle class="Recurso_36_svg__cls-4" cx="49" cy="55" r="1"/>
        <circle class="Recurso_36_svg__cls-4" cx="49" cy="61" r="1"/>
        <circle class="Recurso_36_svg__cls-4" cx="49" cy="67" r="1"/>
        <circle class="Recurso_36_svg__cls-4" cx="49" cy="73" r="1"/>
    </g>
</svg>