<svg id="Recurso_37_svg__Capa_2" xmlns="http://www.w3.org/2000/svg" viewBox="0 0 100 100" width="1em" height="1em" class="IconSelector__Grid__Icon">
    <defs>
        <style>.Recurso_37_svg__cls-2{fill:#c9b500}</style>
    </defs>
    <circle cx="50" cy="50" r="50" style="fill: rgb(255, 182, 10);" id="Recurso_37_svg__Capa_1-2"/>
    <g id="Recurso_37_svg__Capa_2-2">
        <path d="M77.5 43.49c0 12.25-7.21 22.7-17.41 26.94-1.76.73-2.85 2.5-2.85 4.41v4.35c0 2.67-2.16 4.83-4.83 4.83h-4.82c-2.67 0-4.83-2.16-4.83-4.83v-4.35c0-1.9-1.1-3.68-2.85-4.41C29.71 66.2 22.5 55.74 22.5 43.49c0-15.99 12.32-28.95 27.5-28.95s27.5 12.95 27.5 28.95Z"
              style="fill: rgb(255, 243, 85);"/>
        <path class="Recurso_37_svg__cls-2" d="M45.66 43.49h2.89v40.53h-2.89zM51.45 43.49h2.89v40.53h-2.89z"/>
        <path style="fill: rgb(196, 196, 196);" d="M56.07 85.46H43.93l-1.89-8.68h15.92l-1.89 8.68z"/>
    </g>
</svg>