<svg xmlns="http://www.w3.org/2000/svg" viewBox="0 0 100 100" width="1em" height="1em" class="IconSelector__Grid__Icon">
    <defs>
        <style>
            .Recurso_11_svg__e{fill:#00ab36}.Recurso_11_svg__j,.Recurso_11_svg__k{stroke:#00830e;fill:none;stroke-miterlimit:10;stroke-width:.2px}.Recurso_11_svg__k{stroke:#005b00}
        </style>
    </defs>
    <g id="Recurso_11_svg__b">
        <circle cx="50" cy="50" r="50" style="fill: rgb(196, 121, 177);" id="Recurso_11_svg__c"/>
        <g id="Recurso_11_svg__d">
            <path style="fill: rgb(0, 211, 94);" d="M64.07 44.16H15.32l21.11-12.19h48.75L64.07 44.16z"/>
            <path class="Recurso_11_svg__e" d="M15.25 44.16h48.76v24.38H15.25z"/>
            <ellipse class="Recurso_11_svg__e" cx="50.6" cy="38.06" rx="16.84" ry="3.24"
                     transform="rotate(-1.42 50.776 38.158)"/>
            <path style="fill: rgb(0, 131, 14);" d="M85.25 56.31 64.01 68.57V44.19l21.24-12.26v24.38z"/>
            <path class="Recurso_11_svg__k"
                  d="m63.99 50.81 21.24-12.26M63.99 51.51l21.24-12.27M63.99 52.2l21.24-12.26M63.99 52.9l21.24-12.27M63.99 53.6l21.24-12.27M63.99 54.29l21.24-12.26M63.99 50.11l21.24-12.26M63.99 49.42l21.24-12.27M63.99 48.72l21.24-12.26M63.99 48.02l21.24-12.26M63.99 47.33l21.24-12.27M63.99 46.63l21.24-12.26M63.99 45.93l21.24-12.26M63.99 45.24l21.24-12.27M63.99 60.56 85.23 48.3M63.99 61.26l21.24-12.27M63.99 61.95l21.24-12.26M63.99 62.65l21.24-12.26M63.99 63.35l21.24-12.27M63.99 64.04l21.24-12.26M63.99 59.87 85.23 47.6M63.99 65.44l21.24-12.27M63.99 66.13l21.24-12.26M63.99 66.83l21.24-12.26M63.99 67.53l21.24-12.27M63.99 68.22l21.24-12.26M63.99 64.74l21.24-12.26M63.99 59.17 85.23 46.9M63.99 58.47l21.24-12.26M63.99 57.78l21.24-12.27M63.99 57.08l21.24-12.27M63.99 56.38l21.24-12.26M63.99 55.69l21.24-12.27M63.99 54.99l21.24-12.27"/>
            <path class="Recurso_11_svg__j"
                  d="M15.25 50.77h48.76M15.25 51.47h48.76M15.25 52.17h48.76M15.25 52.86h48.76M15.25 53.56h48.76M15.25 54.25h48.76M15.25 50.08h48.76M15.25 49.38h48.76M15.25 48.68h48.76M15.25 47.99h48.76M15.25 47.29h48.76M15.25 46.59h48.76M15.25 45.9h48.76M15.25 45.2h48.76M15.25 60.52h48.76M15.25 61.22h48.76M15.25 61.92h48.76M15.25 62.61h48.76M15.25 63.31h48.76M15.25 64.01h48.76M15.25 59.83h48.76M15.25 65.4h48.76M15.25 66.1h48.76M15.25 66.79h48.76M15.25 67.49h48.76M15.25 68.19h48.76M15.25 64.7h48.76M15.25 59.13h48.76M15.25 58.43h48.76M15.25 57.74h48.76M15.25 57.04h48.76M15.25 56.34h48.76M15.25 55.65h48.76M15.25 54.95h48.76"/>
            <path style="fill: rgb(176, 134, 90);" d="M34.4 44.16h10.45v24.38H34.4z"/>
            <path style="fill: rgb(216, 174, 130);" d="M44.74 44.16H34.3l21.11-12.19h10.45L44.74 44.16z"/>
        </g>
    </g>
</svg>