<svg xmlns="http://www.w3.org/2000/svg" viewBox="0 0 100 100" width="1em" height="1em" class="IconSelector__Grid__Icon">
    <defs>
        <style>.Recurso_14_svg__f{fill:#00ab36}</style>
    </defs>
    <g id="Recurso_14_svg__b">
        <circle cx="50" cy="50" r="50" style="fill: rgb(55, 77, 156);" id="Recurso_14_svg__c"/>
        <g id="Recurso_14_svg__d">
            <path style="fill: rgb(221, 233, 0);"
                  d="m55.4 22.89.1.12-36 30.2 19.78 23.57 36-30.21-.1-.11 4.32-23.71-24.1.14z"/>
            <path class="Recurso_14_svg__f"
                  d="m44.26 51.13-5.21 4.37-4.37-5.21-.95.8 4.37 5.21-5.21 4.37.8.95 5.21-4.38 4.37 5.22.95-.8-4.38-5.21 5.21-4.37-.79-.95zM59.3 28.5l-.94.79-2.14 24.39.95-.79L59.3 28.5z"/>
            <circle class="Recurso_14_svg__f" cx="49.3" cy="42.54" r="2.78"/>
            <circle class="Recurso_14_svg__f" cx="66.23" cy="39.64" r="2.78"/>
        </g>
    </g>
</svg>