<svg xmlns="http://www.w3.org/2000/svg" viewBox="0 0 100 100" width="1em" height="1em" class="IconSelector__Grid__Icon">
    <defs>
        <style>.Recurso_15_svg__g{fill:#00ab36}</style>
    </defs>
    <g id="Recurso_15_svg__b">
        <circle cx="50" cy="50" r="50" style="fill: rgb(120, 144, 201);" id="Recurso_15_svg__c"/>
        <g id="Recurso_15_svg__d">
            <path d="M47.5 99.95c.83.04 1.66.05 2.5.05s1.67-.02 2.5-.05V26h-5v73.95Z"
                  style="fill: rgb(235, 235, 235);"/>
            <rect x="15" y="33" width="70" height="23" rx="2.56" ry="2.56" style="fill: rgb(215, 215, 215);"/>
            <path class="Recurso_15_svg__g"
                  d="M31.11 39.82c-.11-.11-.32-.26-.61-.44-.3-.18-.66-.37-1.08-.56-.42-.19-.88-.35-1.38-.48-.5-.13-1-.19-1.51-.19-.9 0-1.57.16-2.03.49s-.68.8-.68 1.42c0 .46.14.83.43 1.1.29.27.72.5 1.3.69.58.19 1.3.4 2.16.62 1.12.27 2.09.6 2.92.99.82.39 1.46.9 1.9 1.53.44.63.66 1.47.66 2.52 0 .89-.17 1.66-.5 2.29s-.8 1.16-1.38 1.56c-.58.41-1.26.7-2.02.88-.76.18-1.56.27-2.41.27s-1.7-.09-2.54-.26-1.66-.43-2.44-.76-1.5-.72-2.17-1.19l1.46-2.86c.14.14.4.33.77.56s.82.46 1.34.7c.53.23 1.1.43 1.73.59.62.16 1.26.24 1.9.24.91 0 1.59-.15 2.04-.44.45-.29.67-.72.67-1.29 0-.51-.18-.91-.54-1.21-.36-.29-.87-.55-1.52-.76s-1.43-.44-2.33-.68c-1.09-.3-1.99-.65-2.7-1.03-.71-.38-1.25-.86-1.61-1.42-.36-.57-.54-1.28-.54-2.14 0-1.16.28-2.14.84-2.93.56-.79 1.31-1.39 2.26-1.79.94-.41 1.99-.61 3.14-.61.8 0 1.56.09 2.27.26.71.18 1.38.41 2 .7.62.29 1.18.6 1.68.94l-1.46 2.69ZM39.92 35.36h3.36l6.26 17.04h-3.41l-1.42-4.25h-6.26l-1.42 4.25h-3.41l6.29-17.04Zm4.02 10.46-2.34-7.03-2.36 7.03h4.7ZM51.42 52.4V35.36h3.31V49.5h8.69v2.9h-12ZM77.27 49.5v2.9H65.44V35.36h11.62v2.9h-8.3v4.1h7.15v2.69h-7.15v4.44h8.52Z"/>
        </g>
    </g>
</svg>