<svg xmlns="http://www.w3.org/2000/svg" viewBox="0 0 100 100" width="1em" height="1em" class="IconSelector__Grid__Icon">
    <defs>
        <style>.Recurso_17_svg__h{fill:#1b1464}</style>
    </defs>
    <g id="Recurso_17_svg__b">
        <circle cx="50" cy="50" r="50" style="fill: rgb(152, 24, 105);" id="Recurso_17_svg__c"/>
        <g id="Recurso_17_svg__d">
            <path style="fill: rgb(255, 255, 255);" d="M22.5 15h55v70h-55z"/>
            <path class="Recurso_17_svg__h"
                  d="M57 26v4H43v-4h14m.5-.5h-15v5h15v-5ZM72 26v4H58v-4h14m.5-.5h-15v5h15v-5ZM72 31v4H58v-4h14m.5-.5h-15v5h15v-5ZM57 31v4H43v-4h14m.5-.5h-15v5h15v-5ZM42 31v4H28v-4h14m.5-.5h-15v5h15v-5ZM42 26v4H28v-4h14m.5-.5h-15v5h15v-5Z"/>
            <path style="fill: rgb(171, 0, 54);" d="M61 18h11v5H61z"/>
            <path d="M56.8 55.89c-.1-.07-.36-.25-.79-.52-.43-.28-.97-.56-1.62-.85-.65-.29-1.36-.53-2.12-.74-.77-.2-1.54-.31-2.3-.31-1.01 0-1.78.18-2.32.54s-.81.89-.81 1.58c0 .55.2 1 .61 1.35.41.35 1.01.65 1.8.9s1.76.53 2.92.85c1.63.46 3.04.99 4.23 1.6 1.19.61 2.11 1.4 2.77 2.36s.99 2.23.99 3.82c0 1.42-.27 2.63-.81 3.65s-1.26 1.84-2.16 2.45a9.18 9.18 0 0 1-3.06 1.33c-1.14.28-2.33.41-3.58.41s-2.52-.13-3.82-.4c-1.3-.26-2.55-.64-3.76-1.12-1.21-.48-2.32-1.03-3.33-1.66l2.59-5.18c.12.14.44.37.95.68.52.31 1.17.64 1.96.99s1.66.66 2.61.94c.95.28 1.91.41 2.9.41 1.08 0 1.87-.17 2.38-.52.5-.35.76-.82.76-1.42s-.27-1.12-.81-1.49-1.27-.71-2.2-1.01c-.92-.3-1.99-.62-3.19-.95-1.56-.5-2.85-1.05-3.87-1.64-1.02-.59-1.78-1.31-2.27-2.18-.49-.86-.74-1.93-.74-3.2 0-1.82.43-3.35 1.28-4.59.85-1.24 2-2.17 3.44-2.81 1.44-.64 3.01-.95 4.72-.95 1.22 0 2.39.14 3.51.43 1.12.29 2.16.65 3.13 1.08.97.43 1.83.88 2.57 1.33l-2.56 4.82Zm-7.92-11.23h2.59v6.37l-2.59.47v-6.84Zm0 26.53h2.59v7.2h-2.59v-7.2Zm.4-.68V52.08l1.76-.47v18.97l-1.76-.07Z"/>
        </g>
    </g>
</svg>